# xmcd
#
# Track frame offsets: 
#        150
#        16240
#        31159
#        48630
#        67319
#        84607
#        99133
#        114620
#        134462
#        148586
#        168232
#        187603
#        204771
#        219536
#        235694
#        253388
#        269470
#        285669
#        301533
#        317856
#
# Disc length: 4443 seconds
#
# Revision: 9
# Processed by: cddbd v1.5.2PL0 Copyright (c) Steve Scherf et al.
# Submitted via: ExactAudioCopy v0.99pb5
#
DISCID=18115914
DTITLE=Various Artist - New American Country 2
DYEAR=1999
DGENRE=New Country
TTITLE0=Shania Twain - Love Gets Me Every Time
TTITLE1=Tracy Byrd - Don't Love Make A Diamond Shine
TTITLE2=Toby Keith - Me Too
TTITLE3=Kathy Mattea - 455 Rocket
TTITLE4=George Strait - Carrying Your Love With Me
TTITLE5=Trisha Yearwood - Everybody Knows
TTITLE6=Tracy Byrd - Don't Take Her She's All I Got
TTITLE7=Billy Ray Cyrus - It's All The Same To Me
TTITLE8=Terri Clark - Emotional Girl
TTITLE9=Sammy Kershaw - Love Of My Life
TTITLE10=Toby Keith - We Were In Love
TTITLE11=Chely Wright - Shut Up And Drive
TTITLE12=Mark Wills - I Do (Cherish You)
TTITLE13=Shania Twain - Don't Be Stupid (You Know I Love You)
TTITLE14=Toby Keith - Dream Walkin'
TTITLE15=Lee Ann Womack - You've Got To Talk To Me
TTITLE16=Mark Wills - Don't Laugh At Me
TTITLE17=Tracy Byrd - I'm From The Country
TTITLE18=Terri Clark - Now That I Found You
TTITLE19=Mark Chesnutt - Thank God For Believers
EXTD=YEAR: 1999
EXTT0=
EXTT1=
EXTT2=
EXTT3=
EXTT4=
EXTT5=
EXTT6=
EXTT7=
EXTT8=
EXTT9=
EXTT10=
EXTT11=
EXTT12=
EXTT13=
EXTT14=
EXTT15=
EXTT16=
EXTT17=
EXTT18=
EXTT19=
PLAYORDER=
